<?xml version="1.0" standalone="no"?>
<!DOCTYPE svg PUBLIC "-//W3C//DTD SVG 20010904//EN"
 "http://www.w3.org/TR/2001/REC-SVG-20010904/DTD/svg10.dtd">
<svg version="1.0" xmlns="http://www.w3.org/2000/svg"
 width="1080.000000pt" height="1080.000000pt" viewBox="0 0 1080.000000 1080.000000"
 preserveAspectRatio="xMidYMid meet">

<g transform="translate(0.000000,1080.000000) scale(0.100000,-0.100000)"
fill="#000000" stroke="none">
<path d="M4117 8720 c-381 -65 -671 -372 -712 -752 l-7 -68 -409 0 -409 0 0
123 c0 142 -13 181 -70 209 -30 16 -67 18 -280 18 -213 0 -250 -2 -280 -18
-57 -28 -70 -67 -70 -209 l0 -123 -265 0 c-154 0 -286 -5 -317 -11 -187 -39
-348 -200 -387 -387 -7 -36 -11 -282 -11 -757 l0 -705 1269 0 1269 0 52 98
c326 610 872 1009 1555 1133 101 19 157 22 355 22 198 0 254 -3 355 -22 683
-124 1229 -523 1555 -1133 l52 -98 1269 0 1269 0 0 705 c0 475 -4 721 -11 757
-39 187 -200 348 -387 387 -31 6 -162 11 -312 11 l-260 0 0 123 c0 142 -13
181 -70 209 -30 16 -67 18 -280 18 -213 0 -250 -2 -280 -18 -57 -28 -70 -67
-70 -209 l0 -123 -414 0 -414 0 -7 68 c-9 84 -47 217 -82 285 -110 219 -290
369 -530 444 l-88 28 -1265 1 c-696 1 -1287 -2 -1313 -6z"/>
<path d="M5160 7135 c-357 -44 -697 -184 -985 -404 -90 -68 -258 -235 -335
-331 -82 -103 -165 -231 -213 -326 l-36 -72 52 -5 c29 -2 53 -2 55 2 1 4 30
54 65 111 275 462 710 779 1228 894 814 180 1648 -192 2061 -919 34 -60 63
-111 64 -113 2 -4 94 20 94 24 0 3 -18 39 -39 82 -49 96 -139 234 -218 332
-72 89 -243 257 -328 321 -420 321 -952 467 -1465 404z"/>
<path d="M2062 5934 c-66 -17 -102 -36 -147 -75 -31 -28 -35 -29 -40 -12 -13
40 -32 68 -55 80 -19 10 -95 13 -312 11 -284 -3 -288 -3 -310 -26 l-23 -23 -3
-722 c-2 -530 1 -729 9 -750 19 -46 55 -57 179 -57 123 0 158 11 178 55 8 18
12 108 12 295 l0 270 88 0 c48 0 97 3 110 6 l22 6 0 -139 c0 -108 4 -155 20
-213 49 -178 173 -275 367 -287 239 -16 393 86 447 294 13 51 16 132 16 492
l0 431 40 0 40 0 2 -575 3 -575 28 -27 c27 -28 28 -28 161 -28 151 0 167 6
186 74 6 22 10 249 10 584 l0 547 35 0 35 0 0 -428 c0 -399 1 -432 20 -502 49
-178 173 -275 367 -287 138 -9 256 24 332 92 36 33 41 35 41 17 0 -35 22 -73
51 -88 19 -9 61 -14 129 -14 158 0 179 20 181 168 l1 87 22 -95 c29 -121 33
-128 67 -145 39 -21 229 -21 268 0 34 17 38 26 61 125 l17 75 5 -71 c5 -76 24
-114 63 -132 30 -14 475 -15 510 -2 37 14 52 47 69 150 9 52 19 110 22 128 5
30 7 32 48 32 l43 0 21 -126 c22 -132 37 -169 77 -184 13 -5 131 -9 261 -9
248 0 280 5 300 46 5 10 11 110 14 223 l5 205 59 -200 c32 -110 65 -212 72
-226 22 -44 57 -51 210 -46 77 3 144 5 149 5 6 0 64 -2 129 -5 80 -3 128 0
148 8 31 13 58 54 58 90 0 20 3 18 39 -14 22 -20 53 -43 70 -51 85 -45 270
-59 391 -30 74 17 132 48 178 95 l32 33 0 -28 c0 -39 24 -80 55 -94 34 -16
216 -16 250 0 41 19 55 57 56 155 l1 88 22 -95 c29 -121 33 -128 67 -145 39
-21 229 -21 268 0 34 17 38 26 61 125 l17 75 5 -71 c6 -77 24 -114 64 -132 33
-16 216 -15 249 0 31 14 55 55 55 94 l0 27 45 -42 c25 -23 65 -50 88 -60 132
-57 315 -53 435 8 52 27 119 97 147 156 51 103 55 161 55 748 0 496 -2 545
-18 577 -25 50 -52 60 -174 60 -121 0 -149 -8 -175 -47 -17 -25 -18 -70 -23
-598 l-5 -570 -32 -3 c-18 -2 -34 -2 -35 0 -1 2 -5 263 -8 580 l-5 578 -28 27
c-27 28 -29 28 -155 28 -70 -1 -136 -1 -147 -2 -11 0 -103 0 -203 1 l-184 1
-22 -26 c-17 -20 -33 -82 -75 -290 -30 -145 -57 -272 -60 -281 -3 -10 -32 110
-64 265 -50 245 -61 285 -82 307 -25 25 -26 25 -210 25 -177 0 -185 -1 -207
-22 -16 -17 -23 -38 -26 -82 l-4 -61 -29 39 c-63 87 -164 132 -314 139 -148 6
-245 -22 -324 -94 l-38 -34 -7 38 c-12 76 -15 77 -310 79 -190 2 -268 -1 -286
-10 -48 -24 -60 -68 -61 -227 l0 -145 -48 160 c-26 88 -52 170 -59 181 -21 38
-59 46 -221 42 -216 -4 -195 42 -201 -434 l-5 -386 -63 372 c-35 204 -68 383
-75 397 -20 45 -53 53 -212 53 -158 0 -192 -8 -212 -52 -5 -13 -37 -180 -69
-373 l-59 -349 -5 354 c-4 252 -9 361 -17 376 -22 39 -60 46 -238 42 -165 -3
-167 -3 -189 -29 -17 -20 -33 -82 -75 -290 -30 -145 -57 -272 -60 -281 -3 -10
-32 110 -64 265 -50 245 -61 285 -82 307 -25 25 -26 25 -210 25 -174 0 -186
-1 -205 -21 -12 -12 -24 -40 -27 -62 l-6 -42 -49 45 c-65 59 -140 86 -253 92
-103 6 -193 -12 -262 -52 -41 -25 -42 -25 -48 -5 -15 47 -41 50 -410 50 -291
0 -351 -2 -375 -15 -17 -9 -30 -19 -30 -23 0 -4 -4 -13 -9 -21 -7 -11 -17 -8
-52 12 -92 54 -252 72 -367 41z m262 -101 c64 -20 137 -88 167 -156 l24 -52 0
-485 0 -485 -24 -48 c-31 -63 -101 -123 -164 -142 -28 -8 -88 -15 -133 -15
-145 0 -238 52 -294 165 l-25 50 0 475 c0 443 1 478 19 524 61 158 240 228
430 169z m1390 0 c64 -20 137 -88 167 -156 l24 -52 0 -485 0 -485 -24 -48
c-31 -63 -101 -123 -164 -142 -28 -8 -88 -15 -133 -15 -145 0 -238 52 -294
165 l-25 50 0 475 c0 443 1 478 19 524 61 158 240 228 430 169z m3746 1 c122
-38 190 -162 190 -346 l0 -58 -90 0 -90 0 0 65 c0 92 -22 143 -74 166 -51 23
-84 24 -137 2 -52 -20 -78 -72 -79 -155 0 -111 17 -131 238 -280 240 -162 256
-190 250 -429 -4 -162 -17 -206 -79 -268 -57 -57 -109 -75 -235 -79 -141 -5
-207 12 -269 69 -65 60 -88 122 -93 252 l-4 108 88 -3 89 -3 5 -85 c7 -102 23
-132 86 -156 78 -30 170 -4 201 57 19 35 17 212 -2 249 -17 33 -112 112 -230
190 -102 68 -166 134 -202 207 -26 54 -28 66 -28 178 1 100 4 128 21 166 29
63 81 119 132 141 82 36 218 42 312 12z m-5680 -79 l0 -85 -160 0 -160 0 0
-210 0 -210 135 0 135 0 0 -85 0 -85 -135 0 -135 0 0 -310 0 -310 -100 0 -100
0 0 690 0 690 260 0 260 0 0 -85z m1440 0 l0 -85 -115 0 -115 0 0 -605 0 -605
-95 0 -95 0 0 605 0 605 -115 0 -115 0 0 85 0 85 325 0 325 0 0 -85z m1084 68
c2 -10 49 -237 103 -506 53 -268 100 -479 104 -470 3 10 50 237 104 506 l98
487 139 0 138 0 0 -690 0 -690 -86 0 -86 0 4 533 c2 292 2 525 0 517 -1 -8
-54 -247 -116 -530 l-113 -515 -89 -3 -89 -3 -115 528 -115 528 -3 -528 -2
-527 -85 0 -85 0 0 690 0 690 144 0 c129 0 145 -2 150 -17z m1372 -643 c62
-360 114 -670 117 -687 l6 -33 -95 0 c-52 0 -94 3 -94 8 0 4 -11 72 -25 152
-14 80 -25 149 -25 153 0 4 -57 6 -127 5 l-127 -3 -24 -155 c-13 -85 -25 -156
-27 -158 -1 -1 -43 -1 -92 0 l-89 3 117 685 c65 377 118 686 118 688 1 1 58 1
128 0 l128 -3 111 -655z m588 212 c72 -246 137 -468 145 -494 15 -44 16 -12
13 447 l-3 495 85 0 86 0 0 -690 0 -691 -112 3 -113 3 -155 525 -155 525 -3
-528 -2 -527 -85 0 -85 0 0 690 0 690 128 0 127 0 129 -448z m626 -242 l0
-690 -100 0 -100 0 0 690 0 690 100 0 100 0 0 -690z m1184 673 c2 -10 49 -237
103 -506 53 -268 100 -479 104 -470 3 10 50 237 104 506 l98 487 139 0 138 0
0 -690 0 -690 -86 0 -86 0 4 533 c2 292 2 525 0 517 -1 -8 -54 -247 -116 -530
l-113 -515 -89 -3 -89 -3 -115 528 -115 528 -3 -528 -2 -527 -85 0 -85 0 0
690 0 690 144 0 c129 0 145 -2 150 -17z m986 -535 c0 -521 2 -555 19 -595 22
-48 44 -62 109 -69 60 -7 111 18 134 66 17 32 18 82 18 593 l0 557 95 0 96 0
-3 -577 c-3 -576 -3 -578 -26 -635 -48 -119 -146 -178 -296 -178 -119 0 -178
20 -240 83 -92 93 -90 73 -94 735 l-3 572 95 0 96 0 0 -552z m-1696 270 c3
-13 7 -52 9 -89 8 -118 32 -134 199 -134 l118 0 0 -96 0 -96 -42 40 c-24 21
-100 77 -169 122 -70 46 -143 98 -163 115 -33 29 -36 37 -36 84 0 59 12 76 52
76 21 0 29 -6 32 -22z m-5594 -104 c0 -116 0 -116 -22 -110 -13 3 -62 6 -110
6 l-88 0 0 110 0 110 110 0 110 0 0 -116z m5422 -421 c54 -36 118 -83 140
-103 40 -35 42 -40 46 -102 5 -80 -7 -108 -48 -108 -54 0 -60 7 -60 74 0 81
-15 131 -47 156 -22 17 -40 20 -134 20 l-109 0 0 120 0 120 56 -55 c31 -30
101 -85 156 -122z"/>
<path d="M2140 5667 c-51 -18 -77 -64 -85 -150 -4 -39 -5 -234 -3 -432 3 -322
5 -363 21 -392 9 -18 28 -40 41 -48 63 -42 165 -22 201 38 19 30 20 52 20 462
0 393 -2 433 -18 462 -9 18 -27 39 -40 47 -32 22 -97 28 -137 13z m90 -106
c15 -30 14 -813 -2 -829 -18 -18 -56 -14 -68 7 -13 26 -14 780 0 815 12 32 54
36 70 7z"/>
<path d="M3530 5667 c-51 -18 -77 -64 -85 -150 -4 -39 -5 -234 -3 -432 3 -322
5 -363 21 -392 9 -18 28 -40 41 -48 63 -42 165 -22 201 38 19 30 20 52 20 462
0 393 -2 433 -18 462 -9 18 -27 39 -40 47 -32 22 -97 28 -137 13z m90 -106
c15 -30 14 -813 -2 -829 -18 -18 -56 -14 -68 7 -13 26 -14 780 0 815 12 32 54
36 70 7z"/>
<path d="M5431 5545 c-1 -5 -23 -142 -50 -302 l-47 -293 98 0 c54 0 98 2 98 5
0 9 -90 569 -94 585 -2 8 -4 11 -5 5z"/>
<path d="M7052 4217 c-298 -532 -842 -890 -1454 -956 -739 -81 -1478 298
-1845 946 -38 66 -63 101 -71 98 -8 -3 -31 -5 -53 -5 l-39 0 39 -77 c88 -176
221 -352 382 -508 168 -162 316 -266 521 -365 681 -329 1486 -245 2093 219 85
64 256 232 328 321 79 98 169 236 218 332 21 43 39 79 39 82 0 3 -83 27 -92
26 -2 -1 -31 -51 -66 -113z"/>
<path d="M900 3555 c0 -475 4 -721 11 -757 39 -187 200 -348 387 -387 75 -16
8129 -16 8204 0 187 39 348 200 387 387 7 36 11 282 11 757 l0 705 -1269 0
-1269 0 -52 -97 c-326 -611 -872 -1010 -1555 -1134 -174 -32 -536 -32 -710 0
-683 124 -1229 523 -1555 1134 l-52 97 -1269 0 -1269 0 0 -705z"/>
</g>
</svg>
